PathFileType	4	(X/Y/Z)	SB25.trc
DataRate	CameraRate	NumFrames	NumMarkers	Units	OrigDataRate	OrigDataStartFrame	OrigNumFrames
60.0	60.0	8	25	m	60.0	133	531
Frame#	Time	R.ASIS			L.ASIS			V.Sacral			R.Knee.Lat			R.Knee.Med			L.Knee.Lat			L.Knee.Med			R.Ankle.Lat			R.Ankle.Med			L.Ankle.Lat			L.Ankle.Med			R.Shank.Front			L.Shank.Front			R.Heel			L.Heel			R.Toe.Tip			L.Toe.Tip			R.Midfoot.Lat			L.Midfoot.Lat			R.Toe.Med			L.Toe.Med			Sternum			Top.Head			R.Acromium			L.Acromium		
		X1	Y1	Z1	X2	Y2	Z2	X3	Y3	Z3	X4	Y4	Z4	X5	Y5	Z5	X6	Y6	Z6	X7	Y7	Z7	X8	Y8	Z8	X9	Y9	Z9	X10	Y10	Z10	X11	Y11	Z11	X12	Y12	Z12	X13	Y13	Z13	X14	Y14	Z14	X15	Y15	Z15	X16	Y16	Z16	X17	Y17	Z17	X18	Y18	Z18	X19	Y19	Z19	X20	Y20	Z20	X21	Y21	Z21	X22	Y22	Z22	X23	Y23	Z23	X24	Y24	Z24	X25	Y25	Z25

133	2.200000	11.928920	0.878731	0.112693	11.841222	0.876817	-0.191617	11.723269	0.821298	0.008714	11.988155	0.331199	0.096947	11.973765	0.333114	0.012787	11.787616	0.300568	-0.095571	11.817232	0.312055	-0.015582	11.604173	0.513072	0.027379	11.618358	0.522644	-0.033315	11.591867	-0.038289	0.056266	11.612618	-0.026802	0.112686	11.939663	0.304397	0.034165	11.835066	0.252707	-0.054168	11.569969	0.616452	-0.041242	11.541391	-0.124439	0.111015	11.412602	0.384804	-0.121859	11.800546	-0.170386	-0.006197	11.438985	0.470954	-0.055428	11.689898	-0.168471	-0.007659	11.490087	0.463296	-0.132495	11.728273	-0.168471	0.076188	12.037278	1.282679	-0.108601	12.073569	1.648339	-0.067511	12.011724	1.311396	0.088083	11.889403	1.275022	-0.258255
134	2.216667	12.043113	0.876817	0.116554	11.960421	0.872988	-0.190572	11.839861	0.815554	0.009030	12.170865	0.359916	0.082038	12.155537	0.361830	-0.003790	11.848207	0.294825	-0.101096	11.880429	0.302483	-0.020378	11.759873	0.486269	0.038646	11.769781	0.497756	-0.021840	11.618564	-0.021059	0.041249	11.640255	-0.013401	0.099338	12.122582	0.329285	0.023532	11.891380	0.245049	-0.059485	11.704707	0.572420	-0.020382	11.555887	-0.097637	0.109451	11.601673	0.313969	-0.094219	11.807742	-0.178044	-0.016834	11.609284	0.402034	-0.026016	11.692296	-0.170386	-0.011205	11.653295	0.407777	-0.107880	11.734009	-0.168471	0.070765	12.153558	1.280765	-0.097127	12.179211	1.650253	-0.063233	12.114237	1.315225	0.098514	12.016424	1.275022	-0.255020
135	2.233333	12.153240	0.876817	0.124899	12.082436	0.869159	-0.184520	11.955515	0.811725	0.007677	12.345024	0.400119	0.067546	12.330634	0.403948	-0.016613	11.907859	0.300568	-0.108291	11.939143	0.302483	-0.029241	11.919327	0.436494	0.056586	11.919745	0.451809	-0.005151	11.644637	0.001914	0.013406	11.666327	0.003829	0.071494	12.305501	0.363745	0.012899	11.943941	0.245049	-0.071477	11.829433	0.501585	0.006110	11.574241	-0.053605	0.099127	11.795437	0.216332	-0.058236	11.801380	-0.181872	-0.024238	11.787614	0.310140	0.009863	11.683745	-0.170386	-0.010788	11.815982	0.325456	-0.076381	11.732132	-0.162728	0.067428	12.271922	1.278850	-0.078039	12.290798	1.650253	-0.060102	12.211745	1.319054	0.111761	12.152205	1.276936	-0.247925
136	2.250000	12.263366	0.880645	0.133245	12.212064	0.869159	-0.180555	12.074506	0.809811	0.004447	12.505834	0.440323	0.060563	12.490506	0.446066	-0.025265	11.985761	0.310140	-0.110375	12.013708	0.310140	-0.029448	12.089522	0.373317	0.066289	12.083996	0.384804	0.005698	11.691358	0.030631	-0.012874	11.709711	0.028717	0.047092	12.479138	0.396290	0.005290	12.014960	0.248878	-0.074082	11.978666	0.411606	0.025406	11.612828	0.001914	0.081817	12.020591	0.130182	-0.028926	11.795853	-0.166557	-0.014540	11.997125	0.218247	0.034792	11.691566	-0.153156	-0.008598	12.010788	0.237391	-0.054164	11.743291	-0.141669	0.067741	12.387680	1.282679	-0.059682	12.403323	1.652168	-0.055302	12.309982	1.322883	0.122400	12.286318	1.280765	-0.239892
137	2.266667	12.376830	0.886389	0.139713	12.354520	0.869159	-0.177214	12.201840	0.809811	-0.003476	12.654964	0.478612	0.060149	12.640574	0.484355	-0.024011	12.094219	0.321627	-0.101091	12.112884	0.323541	-0.017140	12.278072	0.294825	0.065668	12.269939	0.306311	0.004347	11.771555	0.063177	-0.038213	11.779688	0.065091	0.023107	12.646309	0.426922	0.005711	12.112468	0.258450	-0.060836	12.175038	0.304397	0.026975	11.679780	0.065091	0.048551	12.308004	0.065091	-0.006081	11.811704	-0.185701	-0.005884	12.260135	0.128268	0.049398	11.718889	-0.116781	-0.010787	12.265977	0.145498	-0.041748	11.768945	-0.107209	0.066490	12.504168	1.292252	-0.043932	12.511781	1.659825	-0.046018	12.413226	1.328626	0.130224	12.415216	1.288423	-0.233319
138	2.283333	12.489355	0.894047	0.144513	12.502189	0.872988	-0.172414	12.331573	0.813640	-0.014945	12.794082	0.509243	0.065366	12.781361	0.514986	-0.019732	12.219988	0.331199	-0.088365	12.224157	0.342686	-0.002850	12.493007	0.220161	0.061188	12.484874	0.227819	-0.000133	11.875529	0.097637	-0.068141	11.873442	0.103380	-0.005465	12.804408	0.459467	0.013432	12.227495	0.273766	-0.039872	12.402800	0.185701	0.021870	11.776977	0.137840	0.002667	12.619925	0.015316	0.009569	11.809931	-0.153156	0.010489	12.545254	0.057433	0.060355	11.765297	-0.055519	-0.025908	12.548489	0.068920	-0.031521	11.805341	-0.047861	0.057001	12.619717	1.305653	-0.029851	12.620239	1.671312	-0.036734	12.515531	1.334369	0.136379	12.545782	1.299909	-0.227684
139	2.300000	12.600003	0.901704	0.145976	12.640369	0.876817	-0.168865	12.457030	0.817469	-0.026205	12.913490	0.520730	0.070688	12.906713	0.528387	-0.015557	12.349616	0.336943	-0.084399	12.344296	0.356087	-0.000136	12.700120	0.166557	0.054519	12.693656	0.170386	-0.007741	11.985865	0.139755	-0.090665	11.975956	0.151241	-0.030179	12.940919	0.476697	0.017919	12.348051	0.285253	-0.028606	12.617526	0.089979	0.013115	11.899723	0.216332	-0.029033	12.885855	-0.019144	0.013747	11.834334	-0.061262	0.018728	12.789598	0.011487	0.061299	11.835691	0.032546	-0.041341	12.792833	0.019144	-0.030577	11.872398	0.038289	0.043445	12.738603	1.315225	-0.017647	12.733911	1.680884	-0.025990	12.622112	1.338198	0.142326	12.675619	1.309482	-0.219443
140	2.316667	12.708774	0.909362	0.144101	12.761237	0.884474	-0.168758	12.571537	0.825127	-0.033502	13.007765	0.503499	0.070377	13.001927	0.513072	-0.014199	12.483833	0.336943	-0.091800	12.478513	0.354173	-0.007537	12.868335	0.116781	0.041174	12.861870	0.120610	-0.021086	12.088274	0.214418	-0.099944	12.080973	0.225905	-0.038728	13.043745	0.469039	0.017192	12.471109	0.287167	-0.036320	12.794084	0.022973	-0.004923	12.036755	0.313969	-0.031429	13.080246	-0.042118	-0.007732	11.905978	0.063177	0.028950	12.978774	-0.022973	0.038360	11.929444	0.151241	-0.034768	12.980340	-0.011487	-0.052577	11.972096	0.149327	0.048870	12.861766	1.317139	-0.005651	12.861349	1.682799	-0.014203	12.735575	1.340113	0.148794	12.810670	1.313310	-0.209741
